<svg xmlns="http://www.w3.org/2000/svg" xmlns:xlink="http://www.w3.org/1999/xlink" version="1.1" class="marks" width="718" height="477" viewBox="0 0 718 477"><rect width="718" height="477" fill="#FFFFFF"/><g fill="none" stroke-miterlimit="10" transform="translate(153,41)"><g class="mark-group role-frame root" role="graphics-object" aria-roledescription="group mark container"><g transform="translate(0,0)"><path class="background" aria-hidden="true" d="M0.5,0.5h560v396h-560Z" stroke="#DCEAF8"/><g><g class="mark-group role-axis" aria-hidden="true"><g transform="translate(0.5,396.5)"><path class="background" aria-hidden="true" d="M0,0h0v0h0Z" pointer-events="none"/><g><g class="mark-rule role-axis-grid" pointer-events="none"><line transform="translate(0,0)" x2="0" y2="-396" stroke="#DCEAF8" stroke-opacity="0.8" stroke-width="1" opacity="1"/><line transform="translate(160,0)" x2="0" y2="-396" stroke="#DCEAF8" stroke-opacity="0.8" stroke-width="1" opacity="1"/><line transform="translate(320,0)" x2="0" y2="-396" stroke="#DCEAF8" stroke-opacity="0.8" stroke-width="1" opacity="1"/><line transform="translate(480,0)" x2="0" y2="-396" stroke="#DCEAF8" stroke-opacity="0.8" stroke-width="1" opacity="1"/></g></g><path class="foreground" aria-hidden="true" d="" pointer-events="none" display="none"/></g></g><g class="mark-group role-axis" role="graphics-symbol" aria-roledescription="axis" aria-label="X-axis titled 'Percentatge' for a linear scale with values from 0 to 70"><g transform="translate(0.5,396.5)"><path class="background" aria-hidden="true" d="M0,0h0v0h0Z" pointer-events="none"/><g><g class="mark-rule role-axis-tick" pointer-events="none"><line transform="translate(0,0)" x2="0" y2="5" stroke="#6F9DCE" stroke-width="1" opacity="1"/><line transform="translate(160,0)" x2="0" y2="5" stroke="#6F9DCE" stroke-width="1" opacity="1"/><line transform="translate(320,0)" x2="0" y2="5" stroke="#6F9DCE" stroke-width="1" opacity="1"/><line transform="translate(480,0)" x2="0" y2="5" stroke="#6F9DCE" stroke-width="1" opacity="1"/></g><g class="mark-text role-axis-label" pointer-events="none"><text text-anchor="start" transform="translate(0,16)" font-family="DejaVu Sans" font-size="12px" fill="#0F223A" opacity="1">0%</text><text text-anchor="middle" transform="translate(160,16)" font-family="DejaVu Sans" font-size="12px" fill="#0F223A" opacity="1">20%</text><text text-anchor="middle" transform="translate(320,16)" font-family="DejaVu Sans" font-size="12px" fill="#0F223A" opacity="1">40%</text><text text-anchor="middle" transform="translate(480,16)" font-family="DejaVu Sans" font-size="12px" fill="#0F223A" opacity="1">60%</text></g><g class="mark-rule role-axis-domain" pointer-events="none"><line transform="translate(0,0)" x2="560" y2="0" stroke="#2A5DB0" stroke-width="1" opacity="1"/></g><g class="mark-text role-axis-title" pointer-events="none"><text text-anchor="middle" transform="translate(280,32)" font-family="DejaVu Sans" font-size="13px" font-weight="600" fill="#072A4F" opacity="1">Percentatge</text></g></g><path class="foreground" aria-hidden="true" d="" pointer-events="none" display="none"/></g></g><g class="mark-group role-axis" role="graphics-symbol" aria-roledescription="axis" aria-label="Y-axis for a discrete scale with 22 values: Roda de Berà, Salou, Creixell, Altafulla, Vespella de Gaià, ending with Pobla de Mafumet, la"><g transform="translate(0.5,0.5)"><path class="background" aria-hidden="true" d="M0,0h0v0h0Z" pointer-events="none"/><g><g class="mark-rule role-axis-tick" pointer-events="none"><line transform="translate(0,9)" x2="-5" y2="0" stroke="#6F9DCE" stroke-width="1" opacity="1"/><line transform="translate(0,27)" x2="-5" y2="0" stroke="#6F9DCE" stroke-width="1" opacity="1"/><line transform="translate(0,45)" x2="-5" y2="0" stroke="#6F9DCE" stroke-width="1" opacity="1"/><line transform="translate(0,63)" x2="-5" y2="0" stroke="#6F9DCE" stroke-width="1" opacity="1"/><line transform="translate(0,81)" x2="-5" y2="0" stroke="#6F9DCE" stroke-width="1" opacity="1"/><line transform="translate(0,99)" x2="-5" y2="0" stroke="#6F9DCE" stroke-width="1" opacity="1"/><line transform="translate(0,117)" x2="-5" y2="0" stroke="#6F9DCE" stroke-width="1" opacity="1"/><line transform="translate(0,135)" x2="-5" y2="0" stroke="#6F9DCE" stroke-width="1" opacity="1"/><line transform="translate(0,153)" x2="-5" y2="0" stroke="#6F9DCE" stroke-width="1" opacity="1"/><line transform="translate(0,171)" x2="-5" y2="0" stroke="#6F9DCE" stroke-width="1" opacity="1"/><line transform="translate(0,189)" x2="-5" y2="0" stroke="#6F9DCE" stroke-width="1" opacity="1"/><line transform="translate(0,207)" x2="-5" y2="0" stroke="#6F9DCE" stroke-width="1" opacity="1"/><line transform="translate(0,225)" x2="-5" y2="0" stroke="#6F9DCE" stroke-width="1" opacity="1"/><line transform="translate(0,243)" x2="-5" y2="0" stroke="#6F9DCE" stroke-width="1" opacity="1"/><line transform="translate(0,261)" x2="-5" y2="0" stroke="#6F9DCE" stroke-width="1" opacity="1"/><line transform="translate(0,279)" x2="-5" y2="0" stroke="#6F9DCE" stroke-width="1" opacity="1"/><line transform="translate(0,297)" x2="-5" y2="0" stroke="#6F9DCE" stroke-width="1" opacity="1"/><line transform="translate(0,315)" x2="-5" y2="0" stroke="#6F9DCE" stroke-width="1" opacity="1"/><line transform="translate(0,333)" x2="-5" y2="0" stroke="#6F9DCE" stroke-width="1" opacity="1"/><line transform="translate(0,351)" x2="-5" y2="0" stroke="#6F9DCE" stroke-width="1" opacity="1"/><line transform="translate(0,369)" x2="-5" y2="0" stroke="#6F9DCE" stroke-width="1" opacity="1"/><line transform="translate(0,387)" x2="-5" y2="0" stroke="#6F9DCE" stroke-width="1" opacity="1"/></g><g class="mark-text role-axis-label" pointer-events="none"><text text-anchor="end" transform="translate(-11,12.500000000000005)" font-family="DejaVu Sans" font-size="12px" fill="#0F223A" opacity="1">Roda de Berà</text><text text-anchor="end" transform="translate(-11,30.500000000000007)" font-family="DejaVu Sans" font-size="12px" fill="#0F223A" opacity="1">Salou</text><text text-anchor="end" transform="translate(-11,48.50000000000001)" font-family="DejaVu Sans" font-size="12px" fill="#0F223A" opacity="1">Creixell</text><text text-anchor="end" transform="translate(-11,66.5)" font-family="DejaVu Sans" font-size="12px" fill="#0F223A" opacity="1">Altafulla</text><text text-anchor="end" transform="translate(-11,84.5)" font-family="DejaVu Sans" font-size="12px" fill="#0F223A" opacity="1">Vespella de Gaià</text><text text-anchor="end" transform="translate(-11,102.5)" font-family="DejaVu Sans" font-size="12px" fill="#0F223A" opacity="1">Torredembarra</text><text text-anchor="end" transform="translate(-11,120.5)" font-family="DejaVu Sans" font-size="12px" fill="#0F223A" opacity="1">Vila-seca</text><text text-anchor="end" transform="translate(-11,138.5)" font-family="DejaVu Sans" font-size="12px" fill="#0F223A" opacity="1">Pobla de Montornès, la</text><text text-anchor="end" transform="translate(-11,156.5)" font-family="DejaVu Sans" font-size="12px" fill="#0F223A" opacity="1">Salomó</text><text text-anchor="end" transform="translate(-11,174.5)" font-family="DejaVu Sans" font-size="12px" fill="#0F223A" opacity="1">Catllar, el</text><text text-anchor="end" transform="translate(-11,192.5)" font-family="DejaVu Sans" font-size="12px" fill="#0F223A" opacity="1">Secuita, la</text><text text-anchor="end" transform="translate(-11,210.5)" font-family="DejaVu Sans" font-size="12px" fill="#0F223A" opacity="1">Riera de Gaià, la</text><text text-anchor="end" transform="translate(-11,228.5)" font-family="DejaVu Sans" font-size="12px" fill="#0F223A" opacity="1">Renau</text><text text-anchor="end" transform="translate(-11,246.5)" font-family="DejaVu Sans" font-size="12px" fill="#0F223A" opacity="1">Constantí</text><text text-anchor="end" transform="translate(-11,264.5)" font-family="DejaVu Sans" font-size="12px" fill="#0F223A" opacity="1">Vilallonga del Camp</text><text text-anchor="end" transform="translate(-11,282.5)" font-family="DejaVu Sans" font-size="12px" fill="#0F223A" opacity="1">Nou de Gaià, la</text><text text-anchor="end" transform="translate(-11,300.5)" font-family="DejaVu Sans" font-size="12px" fill="#0F223A" opacity="1">Morell, el</text><text text-anchor="end" transform="translate(-11,318.5)" font-family="DejaVu Sans" font-size="12px" fill="#0F223A" opacity="1">Tarragona</text><text text-anchor="end" transform="translate(-11,336.5)" font-family="DejaVu Sans" font-size="12px" fill="#0F223A" opacity="1">Canonja, la</text><text text-anchor="end" transform="translate(-11,354.5)" font-family="DejaVu Sans" font-size="12px" fill="#0F223A" opacity="1">Perafort</text><text text-anchor="end" transform="translate(-11,372.5)" font-family="DejaVu Sans" font-size="12px" fill="#0F223A" opacity="1">Pallaresos, els</text><text text-anchor="end" transform="translate(-11,390.5)" font-family="DejaVu Sans" font-size="12px" fill="#0F223A" opacity="1">Pobla de Mafumet, la</text></g><g class="mark-rule role-axis-domain" pointer-events="none"><line transform="translate(0,0)" x2="0" y2="396" stroke="#2A5DB0" stroke-width="1" opacity="1"/></g></g><path class="foreground" aria-hidden="true" d="" pointer-events="none" display="none"/></g></g><g class="mark-group role-scope" role="graphics-object" aria-roledescription="group mark container"><g transform="translate(0,56.50000000000001)"><path class="background" aria-hidden="true" d="M0,0L441.454957740672,0C442.55878778966,0,443.454957740672,0.896169951012,443.454957740672,2L443.454957740672,11C443.454957740672,12.103830048988,442.55878778966,13,441.454957740672,13L0,13C0,13,0,13,0,13L0,0C0,0,0,0,0,0Z"/><g clip-path="url(#clip1)"><g class="mark-group role-scope" role="graphics-object" aria-roledescription="group mark container"><g transform="translate(0,0)"><path class="background" aria-hidden="true" d="M0,0h0v13h0Z"/><g><g class="mark-rect role-mark marks" role="graphics-object" aria-roledescription="rect mark container"><path aria-label="housing_non_main_pct: 55.4318697176; municipality: Altafulla; Municipi: Altafulla; Habitatge no principal (%): 55.4" role="graphics-symbol" aria-roledescription="bar" d="M0,0h443.454957740672v13h-443.454957740672Z" fill="#2A5DB0"/></g></g><path class="foreground" aria-hidden="true" d="" display="none"/></g></g></g><path class="foreground" aria-hidden="true" d="" display="none"/></g><g transform="translate(0,164.5)"><path class="background" aria-hidden="true" d="M0,0L286,0C287.103830048988,0,288,0.896169951012,288,2L288,11C288,12.103830048988,287.103830048988,13,286,13L0,13C0,13,0,13,0,13L0,0C0,0,0,0,0,0Z"/><g clip-path="url(#clip2)"><g class="mark-group role-scope" role="graphics-object" aria-roledescription="group mark container"><g transform="translate(0,0)"><path class="background" aria-hidden="true" d="M0,0h0v13h0Z"/><g><g class="mark-rect role-mark marks" role="graphics-object" aria-roledescription="rect mark container"><path aria-label="housing_non_main_pct: 36; municipality: Catllar, el; Municipi: Catllar, el; Habitatge no principal (%): 36.0" role="graphics-symbol" aria-roledescription="bar" d="M0,0h288v13h-288Z" fill="#2A5DB0"/></g></g><path class="foreground" aria-hidden="true" d="" display="none"/></g></g></g><path class="foreground" aria-hidden="true" d="" display="none"/></g><g transform="translate(0,236.5)"><path class="background" aria-hidden="true" d="M0,0L195.0297029702968,0C196.13353301928478,0,197.0297029702968,0.896169951012,197.0297029702968,2L197.0297029702968,11C197.0297029702968,12.103830048988,196.13353301928478,13,195.0297029702968,13L0,13C0,13,0,13,0,13L0,0C0,0,0,0,0,0Z"/><g clip-path="url(#clip3)"><g class="mark-group role-scope" role="graphics-object" aria-roledescription="group mark container"><g transform="translate(0,0)"><path class="background" aria-hidden="true" d="M0,0h0v13h0Z"/><g><g class="mark-rect role-mark marks" role="graphics-object" aria-roledescription="rect mark container"><path aria-label="housing_non_main_pct: 24.6287128713; municipality: Constantí; Municipi: Constantí; Habitatge no principal (%): 24.6" role="graphics-symbol" aria-roledescription="bar" d="M0,0h197.0297029702968v13h-197.0297029702968Z" fill="#2A5DB0"/></g></g><path class="foreground" aria-hidden="true" d="" display="none"/></g></g></g><path class="foreground" aria-hidden="true" d="" display="none"/></g><g transform="translate(0,38.50000000000001)"><path class="background" aria-hidden="true" d="M0,0L476.5379105952088,0C477.64174064419683,0,478.5379105952088,0.896169951012,478.5379105952088,2L478.5379105952088,11C478.5379105952088,12.103830048988,477.64174064419683,13,476.5379105952088,13L0,13C0,13,0,13,0,13L0,0C0,0,0,0,0,0Z"/><g clip-path="url(#clip4)"><g class="mark-group role-scope" role="graphics-object" aria-roledescription="group mark container"><g transform="translate(0,0)"><path class="background" aria-hidden="true" d="M0,0h0v13h0Z"/><g><g class="mark-rect role-mark marks" role="graphics-object" aria-roledescription="rect mark container"><path aria-label="housing_non_main_pct: 59.8172388244; municipality: Creixell; Municipi: Creixell; Habitatge no principal (%): 59.8" role="graphics-symbol" aria-roledescription="bar" d="M0,0h478.5379105952088v13h-478.5379105952088Z" fill="#2A5DB0"/></g></g><path class="foreground" aria-hidden="true" d="" display="none"/></g></g></g><path class="foreground" aria-hidden="true" d="" display="none"/></g><g transform="translate(0,290.5)"><path class="background" aria-hidden="true" d="M0,0L162.351851851852,0C163.45568190083998,0,164.351851851852,0.896169951012,164.351851851852,2L164.351851851852,11C164.351851851852,12.103830048988,163.45568190083998,13,162.351851851852,13L0,13C0,13,0,13,0,13L0,0C0,0,0,0,0,0Z"/><g clip-path="url(#clip5)"><g class="mark-group role-scope" role="graphics-object" aria-roledescription="group mark container"><g transform="translate(0,0)"><path class="background" aria-hidden="true" d="M0,0h0v13h0Z"/><g><g class="mark-rect role-mark marks" role="graphics-object" aria-roledescription="rect mark container"><path aria-label="housing_non_main_pct: 20.5439814815; municipality: Morell, el; Municipi: Morell, el; Habitatge no principal (%): 20.5" role="graphics-symbol" aria-roledescription="bar" d="M0,0h164.351851851852v13h-164.351851851852Z" fill="#2A5DB0"/></g></g><path class="foreground" aria-hidden="true" d="" display="none"/></g></g></g><path class="foreground" aria-hidden="true" d="" display="none"/></g><g transform="translate(0,272.5)"><path class="background" aria-hidden="true" d="M0,0L186.8888888888888,0C187.9927189378768,0,188.8888888888888,0.896169951012,188.8888888888888,2L188.8888888888888,11C188.8888888888888,12.103830048988,187.9927189378768,13,186.8888888888888,13L0,13C0,13,0,13,0,13L0,0C0,0,0,0,0,0Z"/><g clip-path="url(#clip6)"><g class="mark-group role-scope" role="graphics-object" aria-roledescription="group mark container"><g transform="translate(0,0)"><path class="background" aria-hidden="true" d="M0,0h0v13h0Z"/><g><g class="mark-rect role-mark marks" role="graphics-object" aria-roledescription="rect mark container"><path aria-label="housing_non_main_pct: 23.6111111111; municipality: Nou de Gaià, la; Municipi: Nou de Gaià, la; Habitatge no principal (%): 23.6" role="graphics-symbol" aria-roledescription="bar" d="M0,0h188.8888888888888v13h-188.8888888888888Z" fill="#2A5DB0"/></g></g><path class="foreground" aria-hidden="true" d="" display="none"/></g></g></g><path class="foreground" aria-hidden="true" d="" display="none"/></g><g transform="translate(0,362.5)"><path class="background" aria-hidden="true" d="M0,0L125.9503105590064,0C127.0541406079944,0,127.9503105590064,0.896169951012,127.9503105590064,2L127.9503105590064,11C127.9503105590064,12.103830048988,127.0541406079944,13,125.9503105590064,13L0,13C0,13,0,13,0,13L0,0C0,0,0,0,0,0Z"/><g clip-path="url(#clip7)"><g class="mark-group role-scope" role="graphics-object" aria-roledescription="group mark container"><g transform="translate(0,0)"><path class="background" aria-hidden="true" d="M0,0h0v13h0Z"/><g><g class="mark-rect role-mark marks" role="graphics-object" aria-roledescription="rect mark container"><path aria-label="housing_non_main_pct: 15.9937888199; municipality: Pallaresos, els; Municipi: Pallaresos, els; Habitatge no principal (%): 16.0" role="graphics-symbol" aria-roledescription="bar" d="M0,0h127.9503105590064v13h-127.9503105590064Z" fill="#2A5DB0"/></g></g><path class="foreground" aria-hidden="true" d="" display="none"/></g></g></g><path class="foreground" aria-hidden="true" d="" display="none"/></g><g transform="translate(0,344.5)"><path class="background" aria-hidden="true" d="M0,0L144.8531468531472,0C145.95697690213518,0,146.8531468531472,0.896169951012,146.8531468531472,2L146.8531468531472,11C146.8531468531472,12.103830048988,145.95697690213518,13,144.8531468531472,13L0,13C0,13,0,13,0,13L0,0C0,0,0,0,0,0Z"/><g clip-path="url(#clip8)"><g class="mark-group role-scope" role="graphics-object" aria-roledescription="group mark container"><g transform="translate(0,0)"><path class="background" aria-hidden="true" d="M0,0h0v13h0Z"/><g><g class="mark-rect role-mark marks" role="graphics-object" aria-roledescription="rect mark container"><path aria-label="housing_non_main_pct: 18.3566433566; municipality: Perafort; Municipi: Perafort; Habitatge no principal (%): 18.4" role="graphics-symbol" aria-roledescription="bar" d="M0,0h146.8531468531472v13h-146.8531468531472Z" fill="#2A5DB0"/></g></g><path class="foreground" aria-hidden="true" d="" display="none"/></g></g></g><path class="foreground" aria-hidden="true" d="" display="none"/></g><g transform="translate(0,380.5)"><path class="background" aria-hidden="true" d="M0,0L94.5944272445824,0C95.6982572935704,0,96.5944272445824,0.896169951012,96.5944272445824,2L96.5944272445824,11C96.5944272445824,12.103830048988,95.6982572935704,13,94.5944272445824,13L0,13C0,13,0,13,0,13L0,0C0,0,0,0,0,0Z"/><g clip-path="url(#clip9)"><g class="mark-group role-scope" role="graphics-object" aria-roledescription="group mark container"><g transform="translate(0,0)"><path class="background" aria-hidden="true" d="M0,0h0v13h0Z"/><g><g class="mark-rect role-mark marks" role="graphics-object" aria-roledescription="rect mark container"><path aria-label="housing_non_main_pct: 12.0743034056; municipality: Pobla de Mafumet, la; Municipi: Pobla de Mafumet, la; Habitatge no principal (%): 12.1" role="graphics-symbol" aria-roledescription="bar" d="M0,0h96.5944272445824v13h-96.5944272445824Z" fill="#2A5DB0"/></g></g><path class="foreground" aria-hidden="true" d="" display="none"/></g></g></g><path class="foreground" aria-hidden="true" d="" display="none"/></g><g transform="translate(0,128.5)"><path class="background" aria-hidden="true" d="M0,0L337.6751740139208,0C338.7790040629088,0,339.6751740139208,0.896169951012,339.6751740139208,2L339.6751740139208,11C339.6751740139208,12.103830048988,338.7790040629088,13,337.6751740139208,13L0,13C0,13,0,13,0,13L0,0C0,0,0,0,0,0Z"/><g clip-path="url(#clip10)"><g class="mark-group role-scope" role="graphics-object" aria-roledescription="group mark container"><g transform="translate(0,0)"><path class="background" aria-hidden="true" d="M0,0h0v13h0Z"/><g><g class="mark-rect role-mark marks" role="graphics-object" aria-roledescription="rect mark container"><path aria-label="housing_non_main_pct: 42.4593967517; municipality: Pobla de Montornès, la; Municipi: Pobla de Montornès, la; Habitatge no principal (%): 42.5" role="graphics-symbol" aria-roledescription="bar" d="M0,0h339.6751740139208v13h-339.6751740139208Z" fill="#2A5DB0"/></g></g><path class="foreground" aria-hidden="true" d="" display="none"/></g></g></g><path class="foreground" aria-hidden="true" d="" display="none"/></g><g transform="translate(0,218.5)"><path class="background" aria-hidden="true" d="M0,0L220.78481012658239,0C221.88864017557037,0,222.78481012658239,0.896169951012,222.78481012658239,2L222.78481012658239,11C222.78481012658239,12.103830048988,221.88864017557037,13,220.78481012658239,13L0,13C0,13,0,13,0,13L0,0C0,0,0,0,0,0Z"/><g clip-path="url(#clip11)"><g class="mark-group role-scope" role="graphics-object" aria-roledescription="group mark container"><g transform="translate(0,0)"><path class="background" aria-hidden="true" d="M0,0h0v13h0Z"/><g><g class="mark-rect role-mark marks" role="graphics-object" aria-roledescription="rect mark container"><path aria-label="housing_non_main_pct: 27.8481012658; municipality: Renau; Municipi: Renau; Habitatge no principal (%): 27.8" role="graphics-symbol" aria-roledescription="bar" d="M0,0h222.78481012658239v13h-222.78481012658239Z" fill="#2A5DB0"/></g></g><path class="foreground" aria-hidden="true" d="" display="none"/></g></g></g><path class="foreground" aria-hidden="true" d="" display="none"/></g><g transform="translate(0,200.5)"><path class="background" aria-hidden="true" d="M0,0L224.4672036823936,0C225.5710337313816,0,226.4672036823936,0.896169951012,226.4672036823936,2L226.4672036823936,11C226.4672036823936,12.103830048988,225.5710337313816,13,224.4672036823936,13L0,13C0,13,0,13,0,13L0,0C0,0,0,0,0,0Z"/><g clip-path="url(#clip12)"><g class="mark-group role-scope" role="graphics-object" aria-roledescription="group mark container"><g transform="translate(0,0)"><path class="background" aria-hidden="true" d="M0,0h0v13h0Z"/><g><g class="mark-rect role-mark marks" role="graphics-object" aria-roledescription="rect mark container"><path aria-label="housing_non_main_pct: 28.3084004603; municipality: Riera de Gaià, la; Municipi: Riera de Gaià, la; Habitatge no principal (%): 28.3" role="graphics-symbol" aria-roledescription="bar" d="M0,0h226.4672036823936v13h-226.4672036823936Z" fill="#2A5DB0"/></g></g><path class="foreground" aria-hidden="true" d="" display="none"/></g></g></g><path class="foreground" aria-hidden="true" d="" display="none"/></g><g transform="translate(0,2.5000000000000053)"><path class="background" aria-hidden="true" d="M0,0L515.9639351746176,0C517.0677652236056,0,517.9639351746176,0.896169951012,517.9639351746176,2L517.9639351746176,11C517.9639351746176,12.103830048988,517.0677652236056,13,515.9639351746176,13L0,13C0,13,0,13,0,13L0,0C0,0,0,0,0,0Z"/><g clip-path="url(#clip13)"><g class="mark-group role-scope" role="graphics-object" aria-roledescription="group mark container"><g transform="translate(0,0)"><path class="background" aria-hidden="true" d="M0,0h0v13h0Z"/><g><g class="mark-rect role-mark marks" role="graphics-object" aria-roledescription="rect mark container"><path aria-label="housing_non_main_pct: 64.7454918968; municipality: Roda de Berà; Municipi: Roda de Berà; Habitatge no principal (%): 64.7" role="graphics-symbol" aria-roledescription="bar" d="M0,0h517.9639351746176v13h-517.9639351746176Z" fill="#2A5DB0"/></g></g><path class="foreground" aria-hidden="true" d="" display="none"/></g></g></g><path class="foreground" aria-hidden="true" d="" display="none"/></g><g transform="translate(0,146.5)"><path class="background" aria-hidden="true" d="M0,0L310.747875354108,0C311.851705403096,0,312.747875354108,0.896169951012,312.747875354108,2L312.747875354108,11C312.747875354108,12.103830048988,311.851705403096,13,310.747875354108,13L0,13C0,13,0,13,0,13L0,0C0,0,0,0,0,0Z"/><g clip-path="url(#clip14)"><g class="mark-group role-scope" role="graphics-object" aria-roledescription="group mark container"><g transform="translate(0,0)"><path class="background" aria-hidden="true" d="M0,0h0v13h0Z"/><g><g class="mark-rect role-mark marks" role="graphics-object" aria-roledescription="rect mark container"><path aria-label="housing_non_main_pct: 39.0934844193; municipality: Salomó; Municipi: Salomó; Habitatge no principal (%): 39.1" role="graphics-symbol" aria-roledescription="bar" d="M0,0h312.747875354108v13h-312.747875354108Z" fill="#2A5DB0"/></g></g><path class="foreground" aria-hidden="true" d="" display="none"/></g></g></g><path class="foreground" aria-hidden="true" d="" display="none"/></g><g transform="translate(0,182.5)"><path class="background" aria-hidden="true" d="M0,0L267.1131498470952,0C268.2169798960832,0,269.1131498470952,0.896169951012,269.1131498470952,2L269.1131498470952,11C269.1131498470952,12.103830048988,268.2169798960832,13,267.1131498470952,13L0,13C0,13,0,13,0,13L0,0C0,0,0,0,0,0Z"/><g clip-path="url(#clip15)"><g class="mark-group role-scope" role="graphics-object" aria-roledescription="group mark container"><g transform="translate(0,0)"><path class="background" aria-hidden="true" d="M0,0h0v13h0Z"/><g><g class="mark-rect role-mark marks" role="graphics-object" aria-roledescription="rect mark container"><path aria-label="housing_non_main_pct: 33.6391437309; municipality: Secuita, la; Municipi: Secuita, la; Habitatge no principal (%): 33.6" role="graphics-symbol" aria-roledescription="bar" d="M0,0h269.1131498470952v13h-269.1131498470952Z" fill="#2A5DB0"/></g></g><path class="foreground" aria-hidden="true" d="" display="none"/></g></g></g><path class="foreground" aria-hidden="true" d="" display="none"/></g><g transform="translate(0,308.5)"><path class="background" aria-hidden="true" d="M0,0L160.48809523809518,0C161.59192528708317,0,162.48809523809518,0.896169951012,162.48809523809518,2L162.48809523809518,11C162.48809523809518,12.103830048988,161.59192528708317,13,160.48809523809518,13L0,13C0,13,0,13,0,13L0,0C0,0,0,0,0,0Z"/><g clip-path="url(#clip16)"><g class="mark-group role-scope" role="graphics-object" aria-roledescription="group mark container"><g transform="translate(0,0)"><path class="background" aria-hidden="true" d="M0,0h0v13h0Z"/><g><g class="mark-rect role-mark marks" role="graphics-object" aria-roledescription="rect mark container"><path aria-label="housing_non_main_pct: 20.3110119048; municipality: Tarragona; Municipi: Tarragona; Habitatge no principal (%): 20.3" role="graphics-symbol" aria-roledescription="bar" d="M0,0h162.48809523809518v13h-162.48809523809518Z" fill="#2A5DB0"/></g></g><path class="foreground" aria-hidden="true" d="" display="none"/></g></g></g><path class="foreground" aria-hidden="true" d="" display="none"/></g><g transform="translate(0,92.5)"><path class="background" aria-hidden="true" d="M0,0L415.7283034425888,0C416.8321334915768,0,417.7283034425888,0.896169951012,417.7283034425888,2L417.7283034425888,11C417.7283034425888,12.103830048988,416.8321334915768,13,415.7283034425888,13L0,13C0,13,0,13,0,13L0,0C0,0,0,0,0,0Z"/><g clip-path="url(#clip17)"><g class="mark-group role-scope" role="graphics-object" aria-roledescription="group mark container"><g transform="translate(0,0)"><path class="background" aria-hidden="true" d="M0,0h0v13h0Z"/><g><g class="mark-rect role-mark marks" role="graphics-object" aria-roledescription="rect mark container"><path aria-label="housing_non_main_pct: 52.2160379303; municipality: Torredembarra; Municipi: Torredembarra; Habitatge no principal (%): 52.2" role="graphics-symbol" aria-roledescription="bar" d="M0,0h417.7283034425888v13h-417.7283034425888Z" fill="#2A5DB0"/></g></g><path class="foreground" aria-hidden="true" d="" display="none"/></g></g></g><path class="foreground" aria-hidden="true" d="" display="none"/></g><g transform="translate(0,74.5)"><path class="background" aria-hidden="true" d="M0,0L439.570438799076,0C440.674268848064,0,441.570438799076,0.896169951012,441.570438799076,2L441.570438799076,11C441.570438799076,12.103830048988,440.674268848064,13,439.570438799076,13L0,13C0,13,0,13,0,13L0,0C0,0,0,0,0,0Z"/><g clip-path="url(#clip18)"><g class="mark-group role-scope" role="graphics-object" aria-roledescription="group mark container"><g transform="translate(0,0)"><path class="background" aria-hidden="true" d="M0,0h0v13h0Z"/><g><g class="mark-rect role-mark marks" role="graphics-object" aria-roledescription="rect mark container"><path aria-label="housing_non_main_pct: 55.1963048499; municipality: Vespella de Gaià; Municipi: Vespella de Gaià; Habitatge no principal (%): 55.2" role="graphics-symbol" aria-roledescription="bar" d="M0,0h441.570438799076v13h-441.570438799076Z" fill="#2A5DB0"/></g></g><path class="foreground" aria-hidden="true" d="" display="none"/></g></g></g><path class="foreground" aria-hidden="true" d="" display="none"/></g><g transform="translate(0,254.5)"><path class="background" aria-hidden="true" d="M0,0L194.467619848612,0C195.5714498976,0,196.467619848612,0.896169951012,196.467619848612,2L196.467619848612,11C196.467619848612,12.103830048988,195.5714498976,13,194.467619848612,13L0,13C0,13,0,13,0,13L0,0C0,0,0,0,0,0Z"/><g clip-path="url(#clip19)"><g class="mark-group role-scope" role="graphics-object" aria-roledescription="group mark container"><g transform="translate(0,0)"><path class="background" aria-hidden="true" d="M0,0h0v13h0Z"/><g><g class="mark-rect role-mark marks" role="graphics-object" aria-roledescription="rect mark container"><path aria-label="housing_non_main_pct: 24.5584524811; municipality: Vilallonga del Camp; Municipi: Vilallonga del Camp; Habitatge no principal (%): 24.6" role="graphics-symbol" aria-roledescription="bar" d="M0,0h196.467619848612v13h-196.467619848612Z" fill="#2A5DB0"/></g></g><path class="foreground" aria-hidden="true" d="" display="none"/></g></g></g><path class="foreground" aria-hidden="true" d="" display="none"/></g><g transform="translate(0,110.5)"><path class="background" aria-hidden="true" d="M0,0L397.2421197680424,0C398.34594981703043,0,399.2421197680424,0.896169951012,399.2421197680424,2L399.2421197680424,11C399.2421197680424,12.103830048988,398.34594981703043,13,397.2421197680424,13L0,13C0,13,0,13,0,13L0,0C0,0,0,0,0,0Z"/><g clip-path="url(#clip20)"><g class="mark-group role-scope" role="graphics-object" aria-roledescription="group mark container"><g transform="translate(0,0)"><path class="background" aria-hidden="true" d="M0,0h0v13h0Z"/><g><g class="mark-rect role-mark marks" role="graphics-object" aria-roledescription="rect mark container"><path aria-label="housing_non_main_pct: 49.905264971; municipality: Vila-seca; Municipi: Vila-seca; Habitatge no principal (%): 49.9" role="graphics-symbol" aria-roledescription="bar" d="M0,0h399.2421197680424v13h-399.2421197680424Z" fill="#2A5DB0"/></g></g><path class="foreground" aria-hidden="true" d="" display="none"/></g></g></g><path class="foreground" aria-hidden="true" d="" display="none"/></g><g transform="translate(0,20.500000000000007)"><path class="background" aria-hidden="true" d="M0,0L502.6220220156712,0C503.7258520646592,0,504.6220220156712,0.896169951012,504.6220220156712,2L504.6220220156712,11C504.6220220156712,12.103830048988,503.7258520646592,13,502.6220220156712,13L0,13C0,13,0,13,0,13L0,0C0,0,0,0,0,0Z"/><g clip-path="url(#clip21)"><g class="mark-group role-scope" role="graphics-object" aria-roledescription="group mark container"><g transform="translate(0,0)"><path class="background" aria-hidden="true" d="M0,0h0v13h0Z"/><g><g class="mark-rect role-mark marks" role="graphics-object" aria-roledescription="rect mark container"><path aria-label="housing_non_main_pct: 63.077752752; municipality: Salou; Municipi: Salou; Habitatge no principal (%): 63.1" role="graphics-symbol" aria-roledescription="bar" d="M0,0h504.6220220156712v13h-504.6220220156712Z" fill="#2A5DB0"/></g></g><path class="foreground" aria-hidden="true" d="" display="none"/></g></g></g><path class="foreground" aria-hidden="true" d="" display="none"/></g><g transform="translate(0,326.5)"><path class="background" aria-hidden="true" d="M0,0L149.4403292181072,0C150.54415926709518,0,151.4403292181072,0.896169951012,151.4403292181072,2L151.4403292181072,11C151.4403292181072,12.103830048988,150.54415926709518,13,149.4403292181072,13L0,13C0,13,0,13,0,13L0,0C0,0,0,0,0,0Z"/><g clip-path="url(#clip22)"><g class="mark-group role-scope" role="graphics-object" aria-roledescription="group mark container"><g transform="translate(0,0)"><path class="background" aria-hidden="true" d="M0,0h0v13h0Z"/><g><g class="mark-rect role-mark marks" role="graphics-object" aria-roledescription="rect mark container"><path aria-label="housing_non_main_pct: 18.9300411523; municipality: Canonja, la; Municipi: Canonja, la; Habitatge no principal (%): 18.9" role="graphics-symbol" aria-roledescription="bar" d="M0,0h151.4403292181072v13h-151.4403292181072Z" fill="#2A5DB0"/></g></g><path class="foreground" aria-hidden="true" d="" display="none"/></g></g></g><path class="foreground" aria-hidden="true" d="" display="none"/></g></g><g class="mark-group role-title"><g transform="translate(-147.7109375,-36)"><path class="background" aria-hidden="true" d="M0,0h0v0h0Z" pointer-events="none"/><g><g class="mark-text role-title-text" role="graphics-symbol" aria-roledescription="title" aria-label="Title text 'Habitatge no principal als municipis del Tarragonès (2021)'" pointer-events="none"><text text-anchor="start" transform="translate(0,14)" font-family="DejaVu Sans" font-size="18px" font-weight="600" fill="#072A4F" opacity="1">Habitatge no principal als municipis del Tarragonès (2021)</text></g><g class="mark-text role-title-subtitle" role="graphics-symbol" aria-roledescription="subtitle" aria-label="Subtitle text 'Font: Idescat, habitatges per tipus d'habitatge, 2021.'" pointer-events="none"><text text-anchor="start" transform="translate(0,30)" font-family="DejaVu Sans" font-size="12px" fill="#1D4E89" opacity="1">Font: Idescat, habitatges per tipus d'habitatge, 2021.</text></g></g><path class="foreground" aria-hidden="true" d="" pointer-events="none" display="none"/></g></g></g><path class="foreground" aria-hidden="true" d="" display="none"/></g></g></g><defs><clipPath id="clip1"><path d="M0,0L441.454957740672,0C442.55878778966,0,443.454957740672,0.896169951012,443.454957740672,2L443.454957740672,11C443.454957740672,12.103830048988,442.55878778966,13,441.454957740672,13L0,13C0,13,0,13,0,13L0,0C0,0,0,0,0,0Z"/></clipPath><clipPath id="clip2"><path d="M0,0L286,0C287.103830048988,0,288,0.896169951012,288,2L288,11C288,12.103830048988,287.103830048988,13,286,13L0,13C0,13,0,13,0,13L0,0C0,0,0,0,0,0Z"/></clipPath><clipPath id="clip3"><path d="M0,0L195.0297029702968,0C196.13353301928478,0,197.0297029702968,0.896169951012,197.0297029702968,2L197.0297029702968,11C197.0297029702968,12.103830048988,196.13353301928478,13,195.0297029702968,13L0,13C0,13,0,13,0,13L0,0C0,0,0,0,0,0Z"/></clipPath><clipPath id="clip4"><path d="M0,0L476.5379105952088,0C477.64174064419683,0,478.5379105952088,0.896169951012,478.5379105952088,2L478.5379105952088,11C478.5379105952088,12.103830048988,477.64174064419683,13,476.5379105952088,13L0,13C0,13,0,13,0,13L0,0C0,0,0,0,0,0Z"/></clipPath><clipPath id="clip5"><path d="M0,0L162.351851851852,0C163.45568190083998,0,164.351851851852,0.896169951012,164.351851851852,2L164.351851851852,11C164.351851851852,12.103830048988,163.45568190083998,13,162.351851851852,13L0,13C0,13,0,13,0,13L0,0C0,0,0,0,0,0Z"/></clipPath><clipPath id="clip6"><path d="M0,0L186.8888888888888,0C187.9927189378768,0,188.8888888888888,0.896169951012,188.8888888888888,2L188.8888888888888,11C188.8888888888888,12.103830048988,187.9927189378768,13,186.8888888888888,13L0,13C0,13,0,13,0,13L0,0C0,0,0,0,0,0Z"/></clipPath><clipPath id="clip7"><path d="M0,0L125.9503105590064,0C127.0541406079944,0,127.9503105590064,0.896169951012,127.9503105590064,2L127.9503105590064,11C127.9503105590064,12.103830048988,127.0541406079944,13,125.9503105590064,13L0,13C0,13,0,13,0,13L0,0C0,0,0,0,0,0Z"/></clipPath><clipPath id="clip8"><path d="M0,0L144.8531468531472,0C145.95697690213518,0,146.8531468531472,0.896169951012,146.8531468531472,2L146.8531468531472,11C146.8531468531472,12.103830048988,145.95697690213518,13,144.8531468531472,13L0,13C0,13,0,13,0,13L0,0C0,0,0,0,0,0Z"/></clipPath><clipPath id="clip9"><path d="M0,0L94.5944272445824,0C95.6982572935704,0,96.5944272445824,0.896169951012,96.5944272445824,2L96.5944272445824,11C96.5944272445824,12.103830048988,95.6982572935704,13,94.5944272445824,13L0,13C0,13,0,13,0,13L0,0C0,0,0,0,0,0Z"/></clipPath><clipPath id="clip10"><path d="M0,0L337.6751740139208,0C338.7790040629088,0,339.6751740139208,0.896169951012,339.6751740139208,2L339.6751740139208,11C339.6751740139208,12.103830048988,338.7790040629088,13,337.6751740139208,13L0,13C0,13,0,13,0,13L0,0C0,0,0,0,0,0Z"/></clipPath><clipPath id="clip11"><path d="M0,0L220.78481012658239,0C221.88864017557037,0,222.78481012658239,0.896169951012,222.78481012658239,2L222.78481012658239,11C222.78481012658239,12.103830048988,221.88864017557037,13,220.78481012658239,13L0,13C0,13,0,13,0,13L0,0C0,0,0,0,0,0Z"/></clipPath><clipPath id="clip12"><path d="M0,0L224.4672036823936,0C225.5710337313816,0,226.4672036823936,0.896169951012,226.4672036823936,2L226.4672036823936,11C226.4672036823936,12.103830048988,225.5710337313816,13,224.4672036823936,13L0,13C0,13,0,13,0,13L0,0C0,0,0,0,0,0Z"/></clipPath><clipPath id="clip13"><path d="M0,0L515.9639351746176,0C517.0677652236056,0,517.9639351746176,0.896169951012,517.9639351746176,2L517.9639351746176,11C517.9639351746176,12.103830048988,517.0677652236056,13,515.9639351746176,13L0,13C0,13,0,13,0,13L0,0C0,0,0,0,0,0Z"/></clipPath><clipPath id="clip14"><path d="M0,0L310.747875354108,0C311.851705403096,0,312.747875354108,0.896169951012,312.747875354108,2L312.747875354108,11C312.747875354108,12.103830048988,311.851705403096,13,310.747875354108,13L0,13C0,13,0,13,0,13L0,0C0,0,0,0,0,0Z"/></clipPath><clipPath id="clip15"><path d="M0,0L267.1131498470952,0C268.2169798960832,0,269.1131498470952,0.896169951012,269.1131498470952,2L269.1131498470952,11C269.1131498470952,12.103830048988,268.2169798960832,13,267.1131498470952,13L0,13C0,13,0,13,0,13L0,0C0,0,0,0,0,0Z"/></clipPath><clipPath id="clip16"><path d="M0,0L160.48809523809518,0C161.59192528708317,0,162.48809523809518,0.896169951012,162.48809523809518,2L162.48809523809518,11C162.48809523809518,12.103830048988,161.59192528708317,13,160.48809523809518,13L0,13C0,13,0,13,0,13L0,0C0,0,0,0,0,0Z"/></clipPath><clipPath id="clip17"><path d="M0,0L415.7283034425888,0C416.8321334915768,0,417.7283034425888,0.896169951012,417.7283034425888,2L417.7283034425888,11C417.7283034425888,12.103830048988,416.8321334915768,13,415.7283034425888,13L0,13C0,13,0,13,0,13L0,0C0,0,0,0,0,0Z"/></clipPath><clipPath id="clip18"><path d="M0,0L439.570438799076,0C440.674268848064,0,441.570438799076,0.896169951012,441.570438799076,2L441.570438799076,11C441.570438799076,12.103830048988,440.674268848064,13,439.570438799076,13L0,13C0,13,0,13,0,13L0,0C0,0,0,0,0,0Z"/></clipPath><clipPath id="clip19"><path d="M0,0L194.467619848612,0C195.5714498976,0,196.467619848612,0.896169951012,196.467619848612,2L196.467619848612,11C196.467619848612,12.103830048988,195.5714498976,13,194.467619848612,13L0,13C0,13,0,13,0,13L0,0C0,0,0,0,0,0Z"/></clipPath><clipPath id="clip20"><path d="M0,0L397.2421197680424,0C398.34594981703043,0,399.2421197680424,0.896169951012,399.2421197680424,2L399.2421197680424,11C399.2421197680424,12.103830048988,398.34594981703043,13,397.2421197680424,13L0,13C0,13,0,13,0,13L0,0C0,0,0,0,0,0Z"/></clipPath><clipPath id="clip21"><path d="M0,0L502.6220220156712,0C503.7258520646592,0,504.6220220156712,0.896169951012,504.6220220156712,2L504.6220220156712,11C504.6220220156712,12.103830048988,503.7258520646592,13,502.6220220156712,13L0,13C0,13,0,13,0,13L0,0C0,0,0,0,0,0Z"/></clipPath><clipPath id="clip22"><path d="M0,0L149.4403292181072,0C150.54415926709518,0,151.4403292181072,0.896169951012,151.4403292181072,2L151.4403292181072,11C151.4403292181072,12.103830048988,150.54415926709518,13,149.4403292181072,13L0,13C0,13,0,13,0,13L0,0C0,0,0,0,0,0Z"/></clipPath></defs></svg>